<svg width="325" height="468" viewBox="0 0 325 468" fill="none" xmlns="http://www.w3.org/2000/svg">
<path d="M229.999 248.431L58.3305 336.972L209.165 194.275L176.665 117.768L204.999 61.8928L325 336.972H271.666L229.999 248.431Z" fill="#FD633D"/>
<path d="M43.3338 336.972H0L176.669 0L200.002 45.56L43.3338 336.972Z" fill="white"/>
<path d="M101.956 437.589L96.0663 420.986C95.7763 420.25 95.4751 419.375 95.1628 418.363C94.8505 417.35 94.5382 416.257 94.2259 415.083C93.9358 416.257 93.6347 417.362 93.3224 418.397C93.01 419.41 92.7089 420.296 92.4189 421.055L86.5628 437.589H101.956ZM117.851 456.436H110.89C110.11 456.436 109.474 456.241 108.983 455.85C108.492 455.435 108.124 454.929 107.879 454.331L104.265 444.148H84.2204L80.6064 454.331C80.4279 454.86 80.0821 455.343 79.569 455.781C79.0559 456.218 78.4201 456.436 77.6616 456.436H70.6344L89.6749 406.523H98.8438L117.851 456.436Z" fill="white"/>
<path d="M129.855 405.142V456.436H121.589V405.142H129.855Z" fill="white"/>
<path d="M159.64 430.064C158.725 428.891 157.71 428.062 156.595 427.579C155.479 427.096 154.286 426.854 153.014 426.854C151.765 426.854 150.638 427.096 149.634 427.579C148.631 428.062 147.772 428.799 147.058 429.788C146.344 430.755 145.797 431.997 145.418 433.516C145.039 435.012 144.849 436.784 144.849 438.832C144.849 440.903 145.005 442.664 145.318 444.113C145.652 445.54 146.121 446.714 146.723 447.634C147.325 448.532 148.062 449.188 148.932 449.602C149.802 449.993 150.772 450.189 151.843 450.189C153.561 450.189 155.022 449.82 156.227 449.084C157.431 448.348 158.569 447.301 159.64 445.943V430.064ZM167.905 421.021V468H159.64V451.949C158.279 453.445 156.74 454.653 155.022 455.573C153.304 456.494 151.308 456.954 149.032 456.954C147.158 456.954 145.44 456.551 143.879 455.746C142.317 454.941 140.967 453.778 139.83 452.26C138.714 450.718 137.844 448.819 137.22 446.564C136.617 444.309 136.316 441.732 136.316 438.832C136.316 436.209 136.662 433.769 137.353 431.514C138.045 429.259 139.038 427.303 140.332 425.646C141.626 423.989 143.176 422.7 144.983 421.78C146.79 420.836 148.82 420.365 151.073 420.365C153.215 420.365 155.011 420.744 156.461 421.504C157.911 422.263 159.205 423.287 160.343 424.576L160.778 422.574C161.068 421.538 161.759 421.021 162.852 421.021H167.905Z" fill="white"/>
<path d="M184.629 421.021V456.436H176.33V421.021H184.629ZM185.767 410.7C185.767 411.436 185.622 412.126 185.332 412.771C185.042 413.415 184.651 413.979 184.16 414.462C183.692 414.945 183.134 415.337 182.487 415.636C181.84 415.912 181.149 416.05 180.413 416.05C179.699 416.05 179.018 415.912 178.371 415.636C177.747 415.337 177.2 414.945 176.732 414.462C176.263 413.979 175.884 413.415 175.594 412.771C175.326 412.126 175.192 411.436 175.192 410.7C175.192 409.94 175.326 409.227 175.594 408.559C175.884 407.892 176.263 407.317 176.732 406.834C177.2 406.35 177.747 405.971 178.371 405.694C179.018 405.395 179.699 405.246 180.413 405.246C181.149 405.246 181.84 405.395 182.487 405.694C183.134 405.971 183.692 406.35 184.16 406.834C184.651 407.317 185.042 407.892 185.332 408.559C185.622 409.227 185.767 409.94 185.767 410.7Z" fill="white"/>
<path d="M193.055 456.436V421.021H198.108C199.179 421.021 199.882 421.538 200.216 422.574L200.752 425.197C201.354 424.507 201.979 423.874 202.626 423.299C203.295 422.723 203.998 422.229 204.734 421.815C205.492 421.4 206.296 421.078 207.143 420.848C208.013 420.595 208.961 420.468 209.988 420.468C212.152 420.468 213.925 421.078 215.308 422.298C216.714 423.494 217.762 425.094 218.454 427.096C218.989 425.922 219.658 424.921 220.462 424.093C221.265 423.241 222.146 422.551 223.105 422.022C224.064 421.492 225.079 421.101 226.15 420.848C227.243 420.595 228.337 420.468 229.43 420.468C231.326 420.468 233.01 420.767 234.483 421.366C235.955 421.964 237.193 422.839 238.197 423.989C239.201 425.14 239.959 426.544 240.472 428.2C241.008 429.857 241.276 431.756 241.276 433.896V456.436H233.01V433.896C233.01 431.641 232.531 429.949 231.571 428.822C230.612 427.671 229.207 427.096 227.355 427.096C226.507 427.096 225.715 427.245 224.979 427.545C224.265 427.844 223.629 428.281 223.072 428.856C222.536 429.409 222.112 430.11 221.8 430.962C221.488 431.813 221.332 432.791 221.332 433.896V456.436H213.033V433.896C213.033 431.526 212.564 429.8 211.627 428.718C210.713 427.637 209.363 427.096 207.578 427.096C206.374 427.096 205.247 427.406 204.199 428.028C203.172 428.626 202.213 429.455 201.321 430.513V456.436H193.055Z" fill="white"/>
<path d="M267.269 441.317C264.882 441.432 262.874 441.651 261.246 441.973C259.617 442.272 258.312 442.664 257.331 443.147C256.349 443.63 255.646 444.194 255.222 444.838C254.799 445.483 254.587 446.184 254.587 446.944C254.587 448.44 255.01 449.51 255.858 450.154C256.728 450.798 257.855 451.121 259.238 451.121C260.933 451.121 262.395 450.81 263.622 450.189C264.871 449.544 266.087 448.578 267.269 447.289V441.317ZM248.329 425.957C252.278 422.229 257.029 420.365 262.584 420.365C264.592 420.365 266.388 420.71 267.972 421.4C269.556 422.068 270.894 423.011 271.987 424.231C273.081 425.427 273.906 426.866 274.464 428.546C275.044 430.225 275.334 432.066 275.334 434.069V456.436H271.586C270.805 456.436 270.203 456.321 269.779 456.091C269.355 455.838 269.02 455.343 268.775 454.607L268.039 452.053C267.169 452.858 266.321 453.571 265.496 454.193C264.67 454.791 263.811 455.297 262.919 455.711C262.027 456.126 261.067 456.436 260.041 456.643C259.037 456.874 257.922 456.989 256.695 456.989C255.245 456.989 253.906 456.793 252.679 456.402C251.452 455.988 250.393 455.378 249.5 454.572C248.608 453.767 247.916 452.766 247.425 451.569C246.935 450.373 246.689 448.98 246.689 447.393C246.689 446.495 246.834 445.609 247.124 444.735C247.414 443.837 247.883 442.986 248.53 442.18C249.199 441.375 250.058 440.615 251.106 439.902C252.155 439.189 253.438 438.567 254.955 438.038C256.494 437.509 258.279 437.083 260.309 436.761C262.339 436.416 264.659 436.209 267.269 436.14V434.069C267.269 431.698 266.778 429.949 265.797 428.822C264.815 427.671 263.398 427.096 261.547 427.096C260.208 427.096 259.093 427.257 258.201 427.579C257.331 427.901 256.561 428.269 255.892 428.684C255.222 429.075 254.609 429.432 254.051 429.754C253.516 430.076 252.913 430.237 252.244 430.237C251.664 430.237 251.173 430.087 250.772 429.788C250.37 429.466 250.047 429.098 249.801 428.684L248.329 425.957Z" fill="white"/>
</svg>
