<svg width="544" height="2550" viewBox="0 0 544 2550" fill="none" xmlns="http://www.w3.org/2000/svg">
<path fill-rule="evenodd" clip-rule="evenodd" d="M256.951 1482.13C183.182 1668.23 -73.2429 1772.71 -257.66 1916.19C-446.852 2063.39 -533.956 2369.44 -835.736 2332.27C-1183.56 2289.42 -1134.85 1843.18 -1473.29 1766.44C-1903.65 1668.84 -2424.64 2126.97 -2738.34 1900.81C-3019.2 1698.32 -2410.8 1456.48 -2195.12 1246.02C-2087.6 1141.11 -1916.11 1085.38 -1799.73 984.959C-1669.97 872.99 -1638.52 722.21 -1479.58 628.594C-1194.06 460.422 -923.212 186.509 -527.879 235.83C-155.242 282.319 22.3025 598.217 171.116 834.531C303.08 1044.09 339.84 1273.03 256.951 1482.13Z" stroke="#F5401F" stroke-width="2"/>
<path fill-rule="evenodd" clip-rule="evenodd" d="M243.701 1619.73C169.932 1805.83 -86.4929 1910.31 -270.91 2053.79C-460.102 2200.99 -547.206 2507.04 -848.986 2469.87C-1196.81 2427.02 -1148.1 1980.78 -1486.54 1904.04C-1916.9 1806.44 -2437.89 2264.57 -2751.59 2038.41C-3032.45 1835.92 -2424.05 1594.08 -2208.37 1383.62C-2100.85 1278.71 -1929.36 1222.98 -1812.98 1122.56C-1683.22 1010.59 -1651.77 859.81 -1492.83 766.194C-1207.31 598.022 -936.462 324.109 -541.129 373.43C-168.492 419.919 9.05253 735.817 157.866 972.131C289.83 1181.69 326.59 1410.63 243.701 1619.73Z" stroke="#F5401F" stroke-width="2"/>
<path fill-rule="evenodd" clip-rule="evenodd" d="M253.639 1516.53C179.869 1702.63 -76.5554 1807.11 -260.973 1950.59C-450.165 2097.79 -537.269 2403.84 -839.049 2366.67C-1186.87 2323.82 -1138.17 1877.58 -1476.6 1800.84C-1906.97 1703.24 -2427.96 2161.37 -2741.65 1935.21C-3022.52 1732.72 -2414.12 1490.88 -2198.43 1280.42C-2090.91 1175.51 -1919.42 1119.78 -1803.04 1019.36C-1673.28 907.39 -1641.83 756.61 -1482.89 662.994C-1197.37 494.822 -926.524 220.909 -531.191 270.23C-158.554 316.719 18.99 632.617 167.803 868.931C299.768 1078.49 336.527 1307.43 253.639 1516.53Z" stroke="#F5401F" stroke-width="2"/>
<path fill-rule="evenodd" clip-rule="evenodd" d="M240.389 1654.13C166.619 1840.23 -89.8054 1944.71 -274.223 2088.19C-463.415 2235.39 -550.519 2541.44 -852.299 2504.27C-1200.12 2461.42 -1151.42 2015.18 -1489.85 1938.44C-1920.22 1840.84 -2441.21 2298.97 -2754.9 2072.81C-3035.77 1870.32 -2427.37 1628.48 -2211.68 1418.02C-2104.16 1313.11 -1932.67 1257.38 -1816.29 1156.96C-1686.53 1044.99 -1655.08 894.209 -1496.14 800.594C-1210.62 632.422 -939.774 358.509 -544.441 407.829C-171.804 454.319 5.74003 770.217 154.553 1006.53C286.518 1216.09 323.277 1445.03 240.389 1654.13Z" stroke="#F5401F" stroke-width="2"/>
<path fill-rule="evenodd" clip-rule="evenodd" d="M250.326 1550.93C176.557 1737.03 -79.8679 1841.51 -264.285 1984.99C-453.477 2132.19 -540.581 2438.24 -842.361 2401.06C-1190.18 2358.22 -1141.48 1911.98 -1479.91 1835.24C-1910.28 1737.64 -2431.27 2195.77 -2744.97 1969.61C-3025.83 1767.12 -2417.43 1525.28 -2201.75 1314.82C-2094.22 1209.91 -1922.74 1154.18 -1806.36 1053.76C-1676.6 941.789 -1645.14 791.009 -1486.2 697.393C-1200.69 529.221 -929.837 255.308 -534.504 304.629C-161.867 351.118 15.6775 667.016 164.491 903.33C296.455 1112.89 333.215 1341.83 250.326 1550.93Z" stroke="#F5401F" stroke-width="2"/>
<path fill-rule="evenodd" clip-rule="evenodd" d="M247.014 1585.33C173.244 1771.43 -83.1804 1875.91 -267.598 2019.39C-456.79 2166.59 -543.894 2472.64 -845.674 2435.46C-1193.49 2392.62 -1144.79 1946.38 -1483.22 1869.64C-1913.59 1772.04 -2434.58 2230.17 -2748.28 2004.01C-3029.14 1801.52 -2420.74 1559.68 -2205.06 1349.22C-2097.53 1244.31 -1926.05 1188.58 -1809.67 1088.16C-1679.91 976.189 -1648.46 825.409 -1489.52 731.793C-1204 563.622 -933.149 289.708 -537.816 339.029C-165.179 385.519 12.365 701.416 161.178 937.73C293.143 1147.29 329.902 1376.23 247.014 1585.33Z" stroke="#F5401F" stroke-width="2"/>
<path fill-rule="evenodd" clip-rule="evenodd" d="M257.389 1431.13C183.619 1617.23 -72.8054 1721.71 -257.223 1865.19C-446.415 2012.39 -533.519 2318.44 -835.299 2281.27C-1183.12 2238.42 -1134.42 1792.18 -1472.85 1715.44C-1903.22 1617.84 -2424.21 2075.97 -2737.9 1849.81C-3018.77 1647.32 -2410.37 1405.48 -2194.68 1195.02C-2087.16 1090.11 -1915.67 1034.38 -1799.29 933.959C-1669.53 821.99 -1638.08 671.21 -1479.14 577.594C-1193.62 409.422 -922.774 135.509 -527.441 184.83C-154.804 231.319 22.74 547.217 171.553 783.531C303.518 993.09 340.277 1222.03 257.389 1431.13Z" stroke="#F5401F" stroke-width="2"/>
<path fill-rule="evenodd" clip-rule="evenodd" d="M246.389 1392.13C172.619 1578.23 -83.8054 1682.71 -268.223 1826.19C-457.415 1973.39 -544.519 2279.44 -846.299 2242.26C-1194.12 2199.42 -1145.42 1753.18 -1483.85 1676.44C-1914.22 1578.84 -2435.21 2036.97 -2748.9 1810.81C-3029.77 1608.32 -2421.37 1366.48 -2205.68 1156.02C-2098.16 1051.11 -1926.67 995.381 -1810.29 894.958C-1680.53 782.99 -1649.08 632.209 -1490.14 538.593C-1204.62 370.422 -933.774 96.5084 -538.441 145.829C-165.804 192.319 11.74 508.217 160.553 744.53C292.518 954.09 329.277 1183.03 246.389 1392.13Z" stroke="#F5401F" stroke-width="2"/>
<path fill-rule="evenodd" clip-rule="evenodd" d="M395.389 1139.13C321.619 1325.23 65.1946 1429.71 -119.223 1573.19C-308.415 1720.39 -395.519 2026.44 -697.299 1989.26C-1045.12 1946.42 -996.417 1500.18 -1334.85 1423.44C-1765.22 1325.84 -2286.21 1783.97 -2599.9 1557.81C-2880.77 1355.32 -2272.37 1113.48 -2056.68 903.024C-1949.16 798.105 -1777.67 742.381 -1661.29 641.958C-1531.53 529.989 -1500.08 379.209 -1341.14 285.593C-1055.62 117.421 -784.774 -156.492 -389.441 -107.171C-16.8041 -60.6819 160.74 255.216 309.553 491.53C441.518 701.089 478.277 930.03 395.389 1139.13Z" stroke="#F5401F" stroke-width="2"/>
<path fill-rule="evenodd" clip-rule="evenodd" d="M216.389 996.131C142.62 1182.23 -113.804 1286.71 -298.222 1430.19C-487.414 1577.39 -574.518 1883.44 -876.298 1846.26C-1224.12 1803.42 -1175.42 1357.18 -1513.85 1280.44C-1944.22 1182.84 -2465.21 1640.97 -2778.9 1414.81C-3059.77 1212.32 -2451.37 970.476 -2235.68 760.024C-2128.16 655.105 -1956.67 599.381 -1840.29 498.958C-1710.53 386.989 -1679.08 236.209 -1520.14 142.593C-1234.62 -25.5787 -963.773 -299.492 -568.44 -250.171C-195.803 -203.682 -18.259 112.216 130.554 348.53C262.519 558.089 299.278 787.03 216.389 996.131Z" stroke="#F5401F" stroke-width="2"/>
<path fill-rule="evenodd" clip-rule="evenodd" d="M284.389 1946.13C210.62 2132.23 -45.8045 2236.71 -230.222 2380.19C-419.414 2527.39 -506.518 2833.44 -808.298 2796.26C-1156.12 2753.42 -1107.42 2307.18 -1445.85 2230.44C-1876.22 2132.84 -2397.21 2590.97 -2710.9 2364.81C-2991.77 2162.32 -2383.37 1920.48 -2167.68 1710.02C-2060.16 1605.11 -1888.67 1549.38 -1772.29 1448.96C-1642.53 1336.99 -1611.08 1186.21 -1452.14 1092.59C-1166.62 924.422 -895.773 650.508 -500.44 699.829C-127.803 746.318 49.741 1062.22 198.554 1298.53C330.519 1508.09 367.278 1737.03 284.389 1946.13Z" stroke="#F5401F" stroke-width="2"/>
<path fill-rule="evenodd" clip-rule="evenodd" d="M81.3895 2300.13C7.62044 2486.23 -248.804 2590.71 -433.222 2734.19C-622.414 2881.39 -709.518 3187.44 -1011.3 3150.26C-1359.12 3107.42 -1310.42 2661.18 -1648.85 2584.44C-2079.22 2486.84 -2600.21 2944.97 -2913.9 2718.81C-3194.77 2516.32 -2586.37 2274.48 -2370.68 2064.02C-2263.16 1959.11 -2091.67 1903.38 -1975.29 1802.96C-1845.53 1690.99 -1814.08 1540.21 -1655.14 1446.59C-1369.62 1278.42 -1098.77 1004.51 -703.44 1053.83C-330.803 1100.32 -153.259 1416.22 -4.44602 1652.53C127.519 1862.09 164.278 2091.03 81.3895 2300.13Z" stroke="#F5401F" stroke-width="2"/>
</svg>
